<?xml version="1.0"?><svg version="1.2" baseProfile="tiny-ps" viewBox="0 0 256 256" xmlns="http://www.w3.org/2000/svg" xmlns:xlink="http://www.w3.org/1999/xlink"><title>treily</title><g><g fill="#fefefd" transform="matrix(.1 0 0 -.1 0 256)"><path d="M0 1280V0h2560v2560H0V1280z"/></g><g fill="#fcfaf0" transform="matrix(.1 0 0 -.1 0 256)"><path d="m1370 2396-12-44 6-10 6-11-20-6c-11-4-32-19-45-33l-25-27-63-14c-34-7-97-15-140-17l-78-2-13-11c-7-6-26-10-42-10-16 1-50 0-75-1l-45-2-21 12-20 13-31-21-30-22h-50l-11-14-12-15-50-10-51-11-10 6-11 7 7-11 7-12h-52l6 11 7 10-39-7c-46-8-55-14-22-14l24-1-28-15-29-16-23 6-22 6-23-20c-13-11-31-20-40-20-10 0-29-9-43-20l-25-20H110v-9c0-5 6-12 13-14l12-5-15-11-15-11-17 6-18 5v-33l-15 6-15 5v-98l22-7 22-7 4 12c2 6 10 11 17 11s15 7 19 15l5 15h18c10 0 35 5 56 11l38 10-11 14-12 14 29 7c60 13 119 33 148 48 17 9 42 16 58 16h27v20h18c10 0 23-5 29-11l12-12 18 8 18 7-20 8-20 9h40l40 1 29 15 29 16 6-8c3-4 15-13 26-19l20-11 5-745 5-745 14-16 13-17h60l-7 18-6 17 11-12 12-11 17 15 18 15-5 24c-2 13-8 24-13 24h-9v-50h-20v1460h20v40h-20v41l8-5 9-5 19 18 20 18 89 9c50 4 109 7 133 6l43-1-6 9c-9 15 8 18 125 21l114 3 9-35c5-19 15-41 23-50 7-8 15-25 16-38l3-23-19-12c-11-6-30-22-43-35l-23-24v-28c0-34-2-33 42-15l33 14 80 6c44 3 88 5 98 6h17v10c0 6-7 10-16 10h-15l6 10c3 6 17 10 31 10h25l5 15 6 14 32 7 33 6 17 29 17 29 9-5c13-8 27 17 39 72l13 51-10 19-10 18-64 13c-34 7-80 21-101 32-20 10-35 14-32 9l6-9h-56l15 10 15 10h-26c-15 0-43 7-63 15l-36 15v59l-26 20c-15 12-30 21-34 21s-13-20-20-44zm313-208 17-9-15-15c-8-9-15-20-15-25s-7-9-15-9h-15l-16-25-16-25h-37l-24-26-24-26-42-1-41-2v31c0 16 4 34 9 40 5 5 11 22 13 39 2 16 10 38 18 47l14 18h36v-21l20 14 21 14 47-5c26-2 55-9 65-14zm-563 78c0-2 7-6 15-10l15-5v9c0 6-7 10-15 10s-15-2-15-4zm-222-13-28-4v-10c0-5 6-10 13-10 20-3 71 1 75 6 7 7-9 25-21 24-7-1-24-4-39-6zm-225-224 19-11 11 11 11 11h-29l-30-1 18-10zm647-39c0-5 5-10 10-10 6 0 10 5 10 10 0 6-4 10-10 10-5 0-10-4-10-10zm533-13-5-8-13 5-13 4-11-11-11-11v-107l-11-20c-5-11-13-18-17-15l-7 4-1-81c-1-45-2-179-3-297l-3-215-10-50-11-50-20-17c-10-10-23-18-28-18h-9v135l-20 25c-25 32-25 47-1 60l20 10-2 23c-1 12-7 31-14 42l-11 19-27-12-26-12 6-21 7-22-13 9-14 8 19-28 18-29-15-9c-16-9-31-48-42-110l-6-38h-9c-5 0-12 5-15 10-4 6-10 8-15 5l-8-5 5-21 6-21-39 2c-21 2-45 2-51 1-19-2-16-19 5-24l17-5-27-1-28-1v-22l-15 6-15 5v-19h-40v22l-13-5-14-5-1 11c-1 7-3 23-4 37l-3 25 35 3c19 2 42 9 50 16s27 17 41 23l26 11 6 21 5 20-17 19-16 19-74 2-74 2-8-13-9-13-9 14-9 14-11-21c-6-11-11-27-11-36v-15l-18-5-18-6 4-33 4-34h-32v27h-40v-40h14c8 0 16-6 19-14l6-14-13-18-13-17-12 8-13 7 5 19c3 10 0 36-5 58l-10 40-19 6-18 6-3 22-3 22-12-2-12-3 4 20 4 20-10 5-9 6v-16l-44 3-43 4-5-19c-2-10-2-43 1-73l6-55 33-3 32-3V984l13-16 12-16 32-5 32-6 45 15 46 16 1 11c1 7 1 15 0 20-2 11 25 9 91-9l61-15 51 11c28 7 66 19 84 28 17 8 35 13 38 10s23-2 46 3l40 10 12-16 11-16 46-4 46-5 18 20 18 20 9-7 10-6 9 14 9 14 10-15c5-8 10-25 10-36v-22l16-13c17-14 51-20 109-22h30l36 24 35 25-4 12-4 12h14c8 0 19-5 25-11l11-11 66 1 66 1v-25l9 14 9 13 6-11 7-11h-10c-6 0-17-15-25-33-14-35-59-87-74-87-6 0-13-11-16-25-4-14-11-25-16-25-6 0-10-7-10-15s-8-19-18-24l-18-9-14-79-14-78-7 25-6 25 2-80 2-80 17-40 17-39-3-25-3-26 41 3 42 3 7-10c8-14 52-14 60-1l6 10h67l-2 33-2 32 15 18c8 9 21 17 29 17h15l-6 62-7 63 8-12 7-11v333l17 41c19 45 69 102 86 96l10-3 7 21c4 12 9 19 13 16 3-3 14 1 24 11l18 16v63l-23-1c-13 0-30-5-38-12-8-6-27-17-42-22l-28-11-10-30-11-30-8 5-8 5 6 85 5 85h-22l4 13 5 12h-27l-28 1-7-11c-4-5-13-10-20-10h-13v-74l-12-12c-7-7-13-21-13-32v-19l-12 5-13 4 3 42 3 41h-10c-12 0-14-9-11-57l2-33h-10c-15 0-21 24-15 67l5 39-15 12-15 13-41-7-41-7v-96l-29-20-28-20-8 7c-4 4-3-3 4-15 13-26 14-36 2-28l-10 5-6-10c-3-5-15-10-25-10h-19l-11 21c-6 11-10 31-8 44l3 23-23 20-23 20 7 28c4 16 14 35 22 43l14 14 8-14 9-13 7 7 7 7-13 24-13 24 7 28c4 15 16 36 28 45l20 18 9 88c12 119 20 163 28 163h8v245l-11 7-11 7 13 13c6 6 12 20 12 30v18h-20l-1-22-1-23-10 38-10 38-17-2c-9-1-18 0-21 1-14 7-62 5-67-3zm58-288c-6-50-10-94-9-98 0-3 0-16-1-29l-1-23-10 6-10 6-1-13v-13l-9 20c-5 11-9 46-9 77l-1 57 20 6 19 6-11 18-11 18 7 47 8 48 14-21 15-21-10-91zm-35-204c1-8-2-15-7-15h-9v43l7-7c4-3 8-13 9-21zm-16-70c0-8-4-15-10-15h-9l5 15c4 8 8 15 10 15s4-7 4-15zm-830-309c0-3-4-8-10-11l-10-6v10c0 6 5 11 10 11 6 0 10-2 10-4zm1135-38 10-8h-35v33l8-9c4-5 12-12 17-16zm36-300c2-65-4-144-13-167-5-14-10-41-10-58v-33h-13c-16 0-25 22-25 60v28l16 6 16 6-2 58c-3 63 8 122 21 122 5 0 9-10 10-22zm-66-166-7-17-9 23-9 23 12 22 13 22 3-28c2-16 0-36-3-45zm-15-64c0-15 5-30 10-33 15-9 12-25-5-25-7 0-18 7-22 15l-9 15 4 41 4 41 9-13c5-8 9-26 9-41zm-399 1156 1-19 5 13c3 7 2 16-1 19-3 4-6-2-5-13zm150-490 1-19 5 13c3 7 2 16-1 19-3 4-6-2-5-13zm-527-382-20-17 7-29c5-16 18-37 29-48l22-20 11 11c6 6 8 11 3 11-4 0 0 7 9 16l16 17-6 25c-6 23-31 51-45 51-3 0-14-7-26-17zm-446 0c-19-4-20-7-23-57l-2-29 13-14 14-13 10 6 10 6-6 11-7 10 22-7 21-6v23l14-11 13-11-5 26-5 26-9-14-10-13 5 35 5 35-22 1c-11 0-29-1-38-4zm89-5c-3-9-3-32 0-51l6-36h32l-15-10-15-10h56l-6 9-5 10 20 6 21 7-6 31c-9 40-14 45-51 53l-31 6-6-15zm130 6-19-5 7-46 7-47 11-7c7-4 28-7 47-6l35 1-30 4c-16 3-34 9-39 14l-10 9h30c16 0 41-7 56-14l27-15 34 10 34 9-1 45-1 45h-10c-5 1-30 4-54 7l-44 5 17-23c18-27 20-39 6-39-5 0-10 8-11 18v17l-9-20-9-20v28l-1 27h-14c-8 0-20 2-28 4-7 2-21 1-31-1zm344-10-20-18 11-42 12-43h12c7 0 14 7 18 15l5 15h31v15c0 8 4 15 10 15h9l-5-15-6-15h19c10 0 29-7 42-16l23-17 7 10c7 10 61 11 61 1 0-5 5-8 10-8 6 0 10 7 10 16v16l16-13 16-13 14 19 14 19v-24h55l-15-11-15-11 18 6c10 3 21 6 23 6s4 23 4 50v50l-7 1c-5 0-23 2-40 3l-33 4v-48h-50l3 23 2 22h-30l2-23 3-23-21 11c-11 6-22 17-25 24l-5 13h-45l-45 1-6-14-5-15-24 16c-29 19-27 19-53-2zm346-28c0-17-13-20-21-6l-6 9 12 5c7 3 13 6 14 6 0 1 1-6 1-14zm-309-20c-3-3-9 2-12 12l-7 18 12-12c7-7 10-15 7-18zm82 3v-10l-15 12c-8 7-15 14-15 16s7 1 15-2c8-4 15-11 15-16zm308 55-28-4v-18c0-9 6-29 13-44l12-27h40l-15-10-15-10h18c10 0 27 5 37 10l19 10-9 24-9 24 6 21 5 21h-10c-6 0-16 2-24 3-7 2-25 2-40 0zm-806-33v-25l5 13c2 6 2 18 0 25l-5 12v-25z"/></g><g fill="#f6ecd8" transform="matrix(.1 0 0 -.1 0 256)"><path d="M1381 2393c-6-21-11-46-11-56v-18l-21-7c-11-5-20-12-18-17 5-25-95-51-311-80-69-10-141-21-161-25l-36-7-12 18-11 19h-40l-12-19-12-19-13 5-13 5 6-15 5-15-43-6c-53-8-155-32-228-53-112-32-126-37-187-60-34-12-64-23-68-23-13 0-120-53-137-68l-18-15v-57h49l18 19c25 26 70 47 197 93 121 43 416 121 425 112 3-3 8-354 11-780l5-775 15-9c21-13 26-12 41 7l14 16 3 771c1 424 5 777 8 785l4 14 7-6 6-7 12 10c10 9 118 26 170 28 11 0 40 5 65 11s94 15 153 21l109 12 18-17c11-10 27-37 36-61s20-44 24-44c5 0 11 19 15 43 4 23 14 53 22 65l15 24 104-4 105-3 9-15 9-15-13-20c-7-11-22-25-32-30-10-6-34-25-53-43-18-17-39-32-46-32s-15-5-17-10c-2-6-12-12-24-14-11-2-37-11-58-20s-53-16-71-16h-33l-11-14-11-13 15-13 15-12 65 12c129 24 230 68 295 127 14 13 28 23 33 23 10 0 29 48 34 85l4 31-38 18-38 19-67 5-68 5 5 7 5 8-47 11c-25 7-59 19-75 27l-30 15-19 44c-11 24-24 47-29 50l-9 6-10-38zm471-430c-32-13-66-154-83-343l-11-135 6-163 6-162-14-29c-15-27-56-61-75-61-16 0-26 42-26 110v65l-29 3-29 4-8-14c-5-7-9-26-9-43 0-16-4-35-8-41-9-15-92-66-92-58 0 4-8 0-17-8-10-8-36-22-58-30l-40-16-38 13c-46 16-44 14-52 46l-6 26 17 17 17 17 12-5c18-6 107 21 117 37 4 6 8 22 8 34v22l-19 11c-11 5-38 10-61 10h-41l-33-14-33-14-27-34c-14-19-26-39-26-44s-5-26-11-47l-10-38-31-34c-16-19-34-35-39-35h-9v149l-21 12-21 11-20-5-20-6 6 37 6 37-19 12-19 12-27-26-26-27 3-35 3-36 41-14 41-14v-70l-1-70 20-14 19-14 35 5 35 6 36 39c21 22 36 41 35 43 0 2 8-5 20-16 23-24 33-28 87-34l38-4 47 12c47 13 126 53 150 77 18 18 32 16 32-3v-17l28-23 27-24h64l13 13c7 7 25 20 40 30l28 17 19-38c25-50 42-63 89-69l40-5 36 12 36 12v10c0 6 11 21 26 34 25 24 40 31 30 16l-5-8 30-13 30-13 58 4 57 4 2-24c1-12-3-28-8-35s-30-37-56-67c-25-30-54-71-65-90s-23-42-28-50c-34-56-61-149-61-210v-45l20-44 20-43-7-11-6-10 10 6 10 6 19-14 19-14 53-1h52v10c0 6 6 10 13 10h13l26 53c35 70 46 133 54 321l6 160 19 43c10 24 22 43 26 43 5 0 36 26 70 58l62 58-9 14-9 14-23-11c-13-6-44-29-70-52-45-40-59-48-57-33 1 4 1 43 0 88l-1 80-14 19-14 19-25-11-24-11-7-39c-4-21-14-60-24-86l-16-48-24-6-24-6-9 14-10 14 3 68 4 68-21 4c-11 2-31 3-45 2l-24-2-11-55-10-55-27-42c-30-46-38-53-72-59l-24-4-13 16c-7 9-14 21-15 28-1 6-9 33-18 60l-15 49 18 51c11 28 31 83 46 121 29 75 37 105 54 202 21 114 26 167 25 259l-2 91-17 34c-10 19-23 37-29 41-12 9-64 9-84 1zm75-205-7-133-20-99c-11-55-24-104-30-110l-10-10v-65l-10-6-10-6v83c0 46 4 119 10 163 5 44 14 126 20 181 5 56 12 109 16 118l6 16h41l-6-132zm293-955c0-16-5-77-11-138l-10-110-16-40c-9-22-17-49-18-60l-2-20-21-3-22-3-15 35c-8 19-15 50-15 68 0 39 29 156 45 183 7 11 24 41 39 68 15 26 31 47 36 47h10v-27zm-599 574c-6-6-11-24-11-39v-28h14c20 0 46 28 46 50v18l-19 5-19 5-11-11zm169-560-25-13-3-20-3-21 15-12 16-13 25 6 25 6v58l-13 10-13 11-24-12zm25-37v-15h-30l-3 18-4 19 19-4 18-3v-15zm-925 21c-5-11-10-30-10-43v-23l9 14 8 13 21-11c11-6 24-11 27-11h7l-7 27c-13 52-37 67-55 34zm113 12-13-5v-59l23-8 22-9 18 10c9 5 17 14 17 19v11l-24-6c-27-7-37 0-29 20l5 14h49l-6 10c-6 10-41 12-62 3zm111-7c-3-8-4-25-2-38l3-23 33-3 32-3v32l-22-3-23-3v30l15 1c8 1 21 2 28 3l13 1-6 10-6 10h-60l-5-14zm110-2c3-9 6-27 6-40v-24l38 1 37 1-30 13-30 14 18 1h17v20h-17l-18 1 30 14 30 13-44 1-43 1 6-16zm116 2c0-8 10-22 23-31l22-16-30 7-30 7 14-16 13-17h48v39l-17 11-18 12 18-6 17-5v29h-60v-14zm117 7c-4-3-7-19-7-34v-27l16-6c9-3 24-6 35-6h20l8 23 9 22-16 18-15 17h-22c-12 0-25-3-28-7zm49-42c-4-6-14-11-22-11h-14v18c0 10 3 22 7 26l7 6 14-14 14-14-6-11zm74 15v-35l10-6 10-6v18l1 18 13-17c7-10 17-18 21-18h7l-6 17-7 16 11 7 11 7-7 16-6 17h-58v-34zm110-7v-40l10 6 10 6v69h-20v-41zm200 22v-21h33l-7-7c-4-5-13-8-18-8-6 0-13-6-15-12l-5-13h60l11 13 11 14-7 7c-4 4-8 15-8 24v17l-27 3-28 3v-20z"/></g><g fill="#dfd2b9" transform="matrix(.1 0 0 -.1 0 256)"><path d="M1385 2394c-11-62-15-73-38-95-40-37-115-64-212-74-33-3-117-15-187-27l-128-20-18 21-17 22-18-7c-10-4-22-17-27-29l-9-23-38-6c-147-27-503-132-528-157-5-5-15-9-22-9s-33-12-58-27l-45-28v-45h58l13 19 14 18 75 31c125 50 253 91 400 126l140 33 1-746V625l7-40 7-40h50l3 792 2 792 53 10c141 27 427 63 472 59l40-3 29-60 30-60 8 53 8 53 14 14 13 14 94 2 94 3 23-8 22-7v-40l-37-35c-82-77-193-134-260-134-29 0-63-17-63-30v-10h85l75 21 74 20 62 35 62 35 41 44 41 45v57l-18 16c-21 19-91 36-152 37h-45l13 9 13 8-47 7-47 6-32 20-33 20-13 33c-7 17-18 40-25 51l-13 18-6-38zm471-443c-9-10-26-42-37-70l-19-51-16-103-15-102 1-235c1-129 1-240 1-246-1-16-70-84-85-84-7 0-17 5-24 12l-12 12v157l-16 6-16 6-15-15-15-15-5-40-5-40-65-37c-73-42-134-66-170-66h-24l-25 25-25 25 3 32 3 33 67 11 67 10 15 13c20 17 20 45 1 61l-15 13h-110l-35-24-35-24-15-32c-8-17-15-41-15-52 0-27-42-94-71-115l-22-15-9 6-10 5 7 58 7 59-7 20-6 21h-77l5 40 6 40h-51l-13-16-13-16v-69l14-10c8-5 29-9 47-9h31l-5-59c-3-33-3-71 1-85l6-26h79l35 31c19 16 38 39 41 50l7 20 33-29 33-29 36-7 37-7 54 16c55 15 109 43 154 77l25 19 12-30 12-29 26-17 26-17 25 6c14 4 43 22 64 41s41 35 44 35 8-14 12-30c4-17 18-44 31-60l25-29 34-7 34-6 33 11 33 11 30 44 30 45 23-30 23-29h107l13 16 14 17 5-24c10-40 1-62-46-114-55-62-131-189-150-252l-14-46V482l15-36 16-37 32-20 32-20 38 5 39 4 25 24c36 33 49 63 67 150l16 77v266l10 40 9 40 80 76c74 69 96 99 72 99-5 0-40-25-79-55l-69-54-7 6c-3 4-6 48-6 100v94l-16 6-17 6-16-10-16-10-11-57c-14-71-29-100-60-117l-24-13-13 13-12 12 1 75 1 74h-63l-12-12-12-12v-77l-41-55-42-54-24-6-24-6-18 17-19 16-18 65-17 65 16 47c9 26 30 85 47 132 32 87 40 122 65 270l15 85v160l-11 38c-6 21-19 47-30 58l-19 19h-47l-17-19zm74-67c27-70-3-309-64-509l-21-70-3 80c-6 134 26 464 50 508 13 24 27 21 38-9zm-580-674c-8-5-19-10-23-10h-8l6 10c3 6 14 10 23 10h17l-15-10zm856-600c-9-58-22-124-29-145l-14-40-20-3-20-3-16 25c-9 13-19 42-23 64l-6 39 21 75 20 76 38 63c20 35 42 69 47 75l11 12 3-67 3-66-15-105zm-584 758c-7-7-12-20-12-30v-18h39l11 20 11 20-6 10c-8 14-28 13-43-2zM903 808c-6-7-13-22-17-33l-6-20 34-1h35l-16 30c-20 40-18 39-30 24zm99-5-10-18 9-22 8-23h21c11 0 20 4 20 9s-8 8-17 7l-18-1-3 23-3 22 13 1c7 1 19 1 27 0l13-2-7 10c-3 6-15 11-25 11h-19l-9-17zm118 2-12-14 4-17c2-9 11-22 20-28l17-11 13 14 13 14-17-6-17-6-11 15-12 14 12 15 13 15 21-5 21-6-15 10c-21 15-35 14-50-4zm114 1c-3-8-4-25-2-38l3-23 30-2 30-1-22 5-23 4v28l18 4 17 5-17 1c-26 2-22 19 5 24l22 4-28 2-28 1-5-14zm110 3-7-13 21-14c12-8 22-19 22-24v-10l-15 12-15 13-7-7-7-6 11-11 11-11 18 4 19 3 3 17 3 16-20 7c-12 3-21 11-21 16v10l21-12 21-11-4 14-5 13-20 3-21 3-8-12zm118-1c-25-25-6-68 30-68h18l12 26 12 26-19 14c-23 17-37 18-53 2zm46-22 4-18-12-12-11-11-15 19-14 19 12 14c14 17 32 12 36-11zm72-3v-38l10 15 9 14 19-17 19-18-1 38-1 38-27 3-28 3v-38zm41 12c1-17-18-17-25 0l-6 16 16-3c8-2 15-7 15-13zm157 14c-22-12-23-33-2-53 21-22 41-20 54 4l11 20-11 20c-12 22-26 25-52 9zm42-29v-20h-40v40h40v-20zm70 21v-19l21-5 21-6-7-11-7-11-16 13-15 13 5-15c2-8 13-17 22-18l18-4 12 12 11 11-22 19c-13 10-23 21-23 25v6l23-6 22-6-15 10c-8 6-23 11-32 11h-18v-19zm-200-21v-30h20v60h-20v-30z"/></g><g fill="#c1ae8b" transform="matrix(.1 0 0 -.1 0 256)"><path d="M1390 2397c0-36-22-88-46-108-11-9-46-26-79-37l-60-20-194-28-194-28-12 17c-7 9-20 17-29 17h-16l-10-24-9-24-58-12c-253-50-575-160-632-215l-14-13 6-16 6-16h39l13 17c39 47 400 169 612 207l37 7V561l19-11 20-10 8 12 8 13 5 785 5 785 135 22c74 12 195 29 268 37l133 16 19-13 20-12 17-42 18-41 7 4c5 3 8 14 8 26 0 11 7 36 17 55l16 35 108-4 109-3 16-16 16-17-11-20c-6-11-32-39-58-62l-48-43-60-28-60-28-64-13-64-13-5-14-5-14 63 7c34 4 90 16 125 27l62 19 75 49 75 49 21 34c12 20 22 45 22 56v22l-25 16-25 16-93 12-92 12 15 6 15 6-27 1c-15 1-46 8-68 17l-41 17-29 56-29 56-1-28zm473-445c-7-4-22-29-34-56l-21-48-15-87-16-86-2-274-3-273-33-34-34-35-25 3-25 3-5 85-5 85h-49l-8-45-8-45-21-16c-11-8-50-30-87-49l-65-33-47-5-47-4-22 23-21 23v73l66 11 66 11 19 17c23 21 24 28 3 48l-15 16h-91l-34-16-34-16-21-29-20-29-6-37-6-38-25-35c-30-42-51-60-70-60h-15l6 74 5 75-14 12-14 11-25-6c-14-4-30-4-35-1l-9 5 11 31 10 31-10 10-11 11-26-11-26-12 3-43 3-42 43-9 42-10-6-61-6-62 11-21 12-22h60l25 16c13 9 35 35 48 56l24 40 11-21c7-11 25-28 41-36l29-15h96l54 25c29 14 72 38 96 54l42 28 12-34 13-34 23-11 23-11 36 7 35 7 35 42 36 42v-18c0-9 9-37 20-61l21-43 34-19 35-18 42 14 41 15 32 46 32 47 24-30 24-30 42-5 41-5 23 16c13 9 28 16 33 16h9l-5-44-5-44-32-34c-49-50-110-143-143-216l-30-66-5-70-5-71 21-46 22-46 25-12c30-13 74-14 107-2l24 9 22 38c12 20 29 62 37 93l15 56 5 165 6 165 10 35 11 35 81 77c44 42 78 79 75 82-6 6-116-72-138-97-7-10-17-17-22-17h-9v208l-15 6c-37 14-49-4-61-87l-6-48-25-30-25-29h-37l-12 22-12 21 6 64 6 63h-58l-15-16-16-15v-77l-40-51c-22-27-49-55-60-61l-20-11-19 10c-10 6-26 27-35 46l-18 36-5 54-6 54 36 89c103 258 138 589 70 664l-16 18h-26c-14 0-31-4-38-8zm67-58 10-25v-77c0-125-30-290-78-442l-27-85-4 25c-5 37 19 387 34 494 17 127 43 170 65 110zm-562-676-5-13-29-3-29-2 19 15c11 8 26 15 34 15h14l-4-12zm862-401c0-50-29-286-40-328-6-20-19-48-29-61l-19-23-26 24-26 24-6 36-7 36 11 68 12 68 26 52c14 29 38 71 53 94l26 43h25v-33zm-614 537c-3-9-4-20 0-25 9-14 31-10 38 7 10 26 7 34-13 34h-19l-6-16zM900 805c0-3 9-16 21-28l21-22-13 28c-11 23-29 37-29 22zm450-15c0-5 5-10 11-10h10l-6 10c-3 6-8 10-11 10-2 0-4-4-4-10zm231-15-1-30 9 14 9 14 16-6 16-6v19h-38l-5 13-5 12-1-30zm316 14c7-7 15-10 18-7s-2 9-12 12l-18 7 12-12zm36-24v-14l9 5 8 5-5 10c-9 13-12 11-12-6zm-576-16c7-7 15-10 18-7s-2 9-12 12l-18 7 12-12zm-109-6c6-2 18-2 25 0l12 5h-50l13-5z"/></g><g fill="#ad8e55" transform="matrix(.1 0 0 -.1 0 256)"><path d="m1385 2350-7-40-31-24c-38-29-103-52-172-61-27-4-114-18-193-31s-152-24-163-24h-19v30h-39l-6-20-6-20-22-5c-12-3-69-16-127-29-254-59-482-140-542-194-23-20-23-28 2-35l19-5 13 16c14 17 145 82 165 82 7 0 21 4 31 9 46 26 394 121 440 121h22l1-755c1-415 3-759 4-765 1-5 3-19 4-30l1-20h40l2 793 3 792 90 17c50 9 131 21 180 28 50 6 117 16 151 21 33 5 79 9 101 9h40l15-17c9-10 22-31 31-48l15-30 7 30c4 17 14 40 21 53l14 22h211l20-10 19-11v-43l-51-49-51-49-72-33-71-33-45-6c-25-4-52-11-60-17l-15-10 65 6c36 4 88 13 116 21l52 15 60 37c78 48 103 70 125 110l19 33-16 24-16 24-37 10c-21 6-68 11-105 11h-67l-5 9-6 9 12 5 13 5-30 1-30 1-33 20-32 20-17 35c-9 19-20 35-24 35s-10-18-14-40zm483-402c-9-7-25-33-36-58l-21-46-16-109-16-110 2-243 2-242-30-38-30-37-29-3-28-4-13 18-13 18v135l-12 7-11 7-14-18-13-19v-66l-38-24c-20-13-60-35-87-48l-50-25-48-7-47-7-30 30-30 29v29c0 15 4 33 8 39l7 11 59 6 58 6 19 17c24 21 24 33 2 50l-18 13h-30l-30 1-41-19-41-19-17-23c-9-13-23-47-32-75l-15-51-35-42-36-41h-28l-1 13c0 6 0 45 1 85l1 72h-93l7 27c3 15 7 32 8 38l2 10-22 3-23 3-11-28-10-27 10-23 11-23h70V982l15-12 15-12 26 6 27 7 31 32c17 18 36 41 41 51l11 19 30-31 31-30 44-7 44-7 60 23c33 12 67 28 76 35 8 8 20 14 26 14 5 0 18 9 28 20s24 20 30 20h13l5-28 6-29 26-17 27-18 26 7 27 7 43 45 42 46v-17c0-24 36-92 62-116l22-20h29c42 0 112 43 101 62l-5 8h11c6 0 16 11 22 25l11 25 32-37 32-37h82l21 19 20 18 7-7c4-4 6-25 6-47l-2-41-38-45c-65-77-91-116-126-183l-34-65-13-65-13-65 17-58 17-58 32-19c39-24 68-25 107-5l30 15 25 49 24 49 11 63c5 35 13 134 16 219l7 155 13 25c12 24 81 96 133 140 13 11 22 22 20 25-3 2-39-22-79-55l-75-59-7 12-8 12v196l-22-3-22-3-8-30c-4-16-10-47-13-67l-6-37-25-31-26-30h-17c-9 0-22 5-29 12l-12 12v156h-17c-36 0-63-38-63-88v-30l-40-51-40-51-25-6c-35-9-51 0-71 38l-17 33-5 71-4 70 16 32c9 18 14 32 10 32s-2 6 4 13c13 15 46 115 61 182 6 28 16 73 22 100 6 28 14 105 17 172l5 122-13 33c-26 64-57 83-92 56zm60-35c6-10 13-36 16-59l7-40-10-103c-17-163-66-378-101-440l-7-14-5 9c-6 13 8 293 23 449l12 130 18 43c20 45 33 52 47 25zm-548-693c0-13-34-30-59-30h-21v10c0 13 31 29 58 30h22v-10zm846-483-7-124-18-80-17-81-18-27-17-26-22 14c-12 8-28 25-35 38l-13 24 4 83 5 82 37 77c39 84 80 143 97 143h11l-7-123zm-602 618c-3-8-2-19 2-26l7-12 14 18c17 24 17 35-2 35h-16l-5-15z"/></g></g></svg>